<svg xmlns="http://www.w3.org/2000/svg" viewBox="0 0 1200 700"><defs><linearGradient id="bg" x1="0" y1="0" x2="1" y2="1"><stop stop-color="#070b14"/><stop offset="1" stop-color="#0e1e3a"/></linearGradient><linearGradient id="g" x1="0" y1="0" x2="1" y2="1"><stop stop-color="#0a66c2"/><stop offset="1" stop-color="#38bdf8"/></linearGradient><filter id="glow"><feGaussianBlur stdDeviation="22" result="b"/><feMerge><feMergeNode in="b"/><feMergeNode in="SourceGraphic"/></feMerge></filter></defs><rect width="1200" height="700" rx="42" fill="url(#bg)"/><circle cx="880" cy="320" r="240" fill="#0a66c2" opacity=".14" filter="url(#glow)"/><rect x="360" y="110" width="480" height="520" rx="26" fill="#0f172a" stroke="#0a66c2" stroke-opacity=".55" stroke-width="3"/><rect x="400" y="155" width="100" height="100" rx="22" fill="url(#g)"/><text x="450" y="215" text-anchor="middle" fill="white" font-family="Arial" font-size="58" font-weight="800">in</text><rect x="570" y="160" width="230" height="18" rx="9" fill="#e2e8f0"/><rect x="570" y="192" width="180" height="12" rx="6" fill="#64748b"/><rect x="570" y="216" width="150" height="10" rx="5" fill="#334155"/><rect x="400" y="290" width="400" height="14" rx="7" fill="#1e293b"/><rect x="400" y="320" width="400" height="14" rx="7" fill="#1e293b"/><rect x="400" y="350" width="320" height="14" rx="7" fill="#1e293b"/><rect x="400" y="390" width="400" height="90" rx="14" fill="#0b1224" stroke="#1e40af" stroke-opacity=".45"/><circle cx="435" cy="425" r="18" fill="#0a66c2"/><path d="M428 432l6 6 13-16" fill="none" stroke="white" stroke-width="4" stroke-linecap="round" stroke-linejoin="round"/><rect x="470" y="415" width="190" height="10" rx="5" fill="#38bdf8"/><rect x="470" y="435" width="140" height="8" rx="4" fill="#475569"/><rect x="400" y="510" width="400" height="54" rx="14" fill="url(#g)" opacity=".95"/><text x="600" y="545" text-anchor="middle" fill="white" font-family="Arial" font-size="16" font-weight="700">85% PROFILE STRENGTH</text></svg>